<svg xmlns="http://www.w3.org/2000/svg" xmlns:xlink="http://www.w3.org/1999/xlink" width="24" height="24" preserveAspectRatio="xMidYMid meet" viewBox="0 0 24 24" style="-ms-transform: rotate(360deg); -webkit-transform: rotate(360deg); transform: rotate(360deg);"><path d="M19 5h3v2h-3v3h-2V7h-3V5h3V2h2v3m-8-1l1 .09v2.05c-.32-.09-.66-.14-1-.14c-2.76 0-5 3.13-5 7s2.24 7 5 7s5-3.13 5-7l-.05-1h2.01l.04 1c0 4.97-3.13 9-7 9s-7-4.03-7-9s3.13-9 7-9z" fill="black"/><rect x="0" y="0" width="24" height="24" fill="rgba(0, 0, 0, 0)" /></svg>